<svg width="61" height="21" viewBox="0 0 61 21" fill="none" xmlns="http://www.w3.org/2000/svg">
<path d="M14.522 20.8451C13.912 20.8451 13.422 20.355 13.422 19.745V13.0648C13.422 12.4548 13.912 11.9647 14.522 11.9647H20.942C21.252 11.9647 21.552 12.0948 21.762 12.3348L22.922 13.6249L24.132 12.3251C24.342 12.0951 24.632 11.975 24.942 11.975H30.042C30.902 11.935 31.762 12.1448 32.502 12.5848C32.682 12.2148 33.062 11.975 33.472 11.975H37.162C38.002 11.915 38.8419 12.0649 39.6019 12.4149C39.6819 12.4649 39.732 12.5251 39.812 12.5751C39.992 12.2051 40.372 11.9747 40.782 11.9647H46.1119C46.5119 11.9647 46.872 12.1848 47.062 12.5448C47.692 12.1448 48.422 11.9447 49.162 11.9647H52.3619C52.8219 11.9647 53.242 12.265 53.392 12.705C54.052 12.195 54.862 11.9347 55.692 11.9647H58.892C59.502 11.9647 59.9919 12.4548 59.9919 13.0648V14.4847C59.9919 14.8547 59.8019 15.2049 59.4919 15.4149C59.5019 15.4249 59.512 15.4347 59.532 15.4447C60.092 16.0347 60.382 16.8247 60.332 17.6347C60.332 19.6447 58.982 20.8451 56.722 20.8451H53.592C53.152 20.8451 52.752 20.5847 52.582 20.1747C51.872 20.6447 51.032 20.8751 50.182 20.8451H47.072C46.902 20.8451 46.742 20.805 46.592 20.725C46.442 20.805 46.2819 20.8451 46.1119 20.8451H40.782C40.612 20.8451 40.442 20.795 40.292 20.725C40.142 20.805 39.972 20.8451 39.802 20.8451H38.202C37.592 20.8451 37.1019 20.355 37.1019 19.745V18.4047C37.0219 18.4047 36.922 18.3949 36.772 18.3949H36.172V19.7348C36.172 20.3448 35.682 20.8348 35.072 20.8348H33.472C32.862 20.8348 32.3719 20.3448 32.3719 19.7348V18.035C31.6319 18.435 30.792 18.6351 29.942 18.5951H29.052V19.7348C29.052 20.3448 28.562 20.8348 27.952 20.8348H24.8519C24.5319 20.8448 24.222 20.7047 24.002 20.4647L22.842 19.1649L21.6219 20.4848C21.4119 20.7148 21.122 20.8348 20.812 20.8348H14.522V20.8451ZM40.782 19.745H46.1119V18.3549L42.3719 18.3451V17.0248H46.022V15.6649H42.3719V14.4447H46.1119V13.0648H40.782V19.745ZM36.782 17.3148C37.362 17.3148 37.722 17.3749 37.952 17.6049C38.252 17.9149 38.212 18.5149 38.212 18.9149V19.7548H39.812V18.4247C39.862 18.0047 39.772 17.575 39.542 17.205C39.342 16.945 39.072 16.7549 38.762 16.6449C39.472 16.3349 39.912 15.6346 39.892 14.8646C39.932 14.2546 39.612 13.6747 39.072 13.3847C38.472 13.1247 37.812 13.0151 37.152 13.0751H33.462V19.7548H35.062V17.3148H36.782ZM24.8519 19.745H27.952V17.5048H29.942C31.342 17.5048 32.722 17.1248 32.722 15.2748C32.722 13.4248 31.302 13.0751 30.032 13.0751H24.932L22.902 15.265L20.932 13.0751H14.522V19.7548H20.842L22.882 17.5448L24.8519 19.745ZM53.592 19.745H56.702C58.302 19.755 59.202 19.0849 59.202 17.6449C59.242 17.1249 59.072 16.615 58.722 16.225C58.202 15.825 57.552 15.6249 56.902 15.6849L56.042 15.6649C55.832 15.6749 55.622 15.6448 55.422 15.5848C55.132 15.4648 55.0019 15.1349 55.1119 14.8549C55.1519 14.7549 55.222 14.6649 55.312 14.6049C55.512 14.4949 55.732 14.4548 55.952 14.4847H58.882V13.0648H55.682C54.002 13.0648 53.402 14.0851 53.402 15.0551C53.402 17.1651 55.272 17.0746 56.762 17.1146C56.962 17.0946 57.162 17.145 57.332 17.265C57.462 17.375 57.532 17.535 57.522 17.705C57.522 17.875 57.452 18.0249 57.332 18.1449C57.142 18.2849 56.912 18.3348 56.682 18.3148H53.582L53.592 19.745ZM47.072 19.745H50.182C51.782 19.755 52.682 19.0849 52.682 17.6449C52.732 17.1249 52.552 16.615 52.202 16.225C51.682 15.825 51.032 15.6349 50.382 15.6849L49.522 15.6649C49.312 15.6749 49.102 15.6448 48.902 15.5848C48.612 15.4648 48.482 15.1449 48.592 14.8549C48.632 14.7549 48.702 14.6649 48.792 14.6049C48.992 14.4949 49.212 14.4548 49.432 14.4847H52.3619V13.0648H49.162C47.492 13.0648 46.882 14.0851 46.882 15.0551C46.882 17.1651 48.7519 17.0746 50.2419 17.1146C50.4419 17.0946 50.642 17.145 50.812 17.265C50.942 17.375 51.012 17.535 51.002 17.705C51.002 17.875 50.932 18.0249 50.812 18.1449C50.622 18.2749 50.392 18.3348 50.162 18.3148H47.062L47.072 19.745ZM23.912 16.4149L26.3619 13.785V19.1347L23.912 16.4149ZM16.1119 18.3549V17.0248H19.6119V15.6649H16.1119V14.455H20.1119L21.8519 16.3949L20.032 18.3549H16.1119ZM27.952 16.1449V14.4447H30.032C30.612 14.4447 31.002 14.675 31.002 15.265C31.002 15.855 30.622 16.1449 30.002 16.1449H27.952ZM35.072 15.9447V14.4447H37.042C37.302 14.4247 37.562 14.4648 37.802 14.5648C38.022 14.6848 38.152 14.9149 38.132 15.1649C38.142 15.4249 38.022 15.6651 37.802 15.8051C37.552 15.9151 37.282 15.9647 37.012 15.9447H35.072ZM13.672 9.35487C13.232 9.35487 12.842 9.09471 12.662 8.69471L12.452 8.22498V8.25477C12.452 8.86477 11.9619 9.35487 11.3519 9.35487H8.10193C7.65193 9.35487 7.25203 9.08469 7.08203 8.67469L6.75195 7.86463H4.90198L4.56201 8.67469C4.39201 9.08469 3.99199 9.35487 3.54199 9.35487H1.802C1.192 9.35487 0.702026 8.86477 0.702026 8.25477C0.702026 8.10477 0.731992 7.95508 0.791992 7.82508L3.65198 1.14491C3.82198 0.734906 4.22199 0.474985 4.66199 0.474985H7.03198C7.47198 0.474985 7.87199 0.734906 8.04199 1.14491L8.64197 2.54481V1.57508C8.64197 0.965082 9.13194 0.474985 9.74194 0.474985H12.342C12.772 0.474985 13.162 0.724633 13.342 1.11463L14.382 3.38465L15.332 1.15467C15.502 0.744672 15.902 0.48475 16.342 0.48475H19.002C19.212 0.49475 19.4219 0.564946 19.6019 0.684946C19.7719 0.564946 19.982 0.49475 20.192 0.48475H25.522C25.722 0.48475 25.912 0.544672 26.072 0.654672C26.242 0.544672 26.432 0.48475 26.632 0.48475H30.302C31.162 0.41475 32.012 0.574965 32.782 0.954965C32.852 1.00497 32.9219 1.05463 32.9819 1.11463C33.1619 0.734633 33.542 0.495004 33.962 0.495004H35.592C36.132 0.495004 36.582 0.894946 36.662 1.43495C37.512 0.764946 38.582 0.425004 39.662 0.495004H41.202C41.442 0.495004 41.6719 0.574731 41.8619 0.714731C42.0519 0.574731 42.282 0.495004 42.522 0.495004H44.912C45.352 0.495004 45.752 0.754926 45.922 1.16493L46.512 2.53504V1.5951C46.512 0.985102 47.0019 0.495004 47.6119 0.495004H50.042C50.432 0.495004 50.7819 0.694789 50.9819 1.02479L51.7419 2.28504V1.5951C51.7419 0.985102 52.232 0.495004 52.842 0.495004H54.472C55.082 0.495004 55.572 0.985102 55.572 1.5951V8.27479C55.572 8.88479 55.082 9.37489 54.472 9.37489H52.212C51.822 9.37489 51.472 9.1751 51.272 8.8451L50.292 7.22498V8.27479C50.292 8.88479 49.802 9.37489 49.192 9.37489H45.952C45.502 9.37489 45.102 9.10471 44.932 8.69471L44.592 7.88465H42.752L42.422 8.68495C42.252 9.10495 41.852 9.37489 41.402 9.37489H39.532C38.502 9.41489 37.482 9.09475 36.642 8.48475C36.542 8.99475 36.102 9.36489 35.582 9.37489H33.952C33.782 9.37489 33.602 9.325 33.452 9.245C33.302 9.325 33.132 9.37489 32.962 9.37489H31.3519C30.7419 9.37489 30.252 8.88504 30.252 8.28504L30.2419 7.44471V6.95497C30.1719 6.95497 30.072 6.94471 29.932 6.94471H29.322V8.27479C29.322 8.88479 28.832 9.37489 28.222 9.37489H26.6219C26.4219 9.37489 26.232 9.31496 26.072 9.20496C25.912 9.31496 25.712 9.37489 25.522 9.37489H20.182C19.972 9.36489 19.762 9.29469 19.592 9.17469C19.422 9.29469 19.212 9.36489 19.002 9.37489H17.3719C16.7619 9.37489 16.272 8.88479 16.272 8.27479V8.245L16.062 8.71473C15.882 9.11473 15.492 9.37489 15.052 9.37489L13.672 9.35487ZM52.2419 8.25477H54.502V1.57508H52.8719V6.22498L50.072 1.57508H47.642V7.89491L44.942 1.57508H42.552L40.302 6.82508H39.592C39.192 6.85508 38.7919 6.73498 38.4819 6.47498C38.1519 6.02498 37.992 5.46467 38.042 4.90467C38.002 4.36467 38.162 3.82491 38.502 3.39491C38.832 3.08491 39.2819 2.945 39.7319 2.995H41.2419V1.56483H39.702C38.822 1.48483 37.942 1.7651 37.282 2.3451C36.662 3.0651 36.352 4.00497 36.432 4.95497C36.352 5.88496 36.662 6.81477 37.292 7.50477C37.942 8.03477 38.7619 8.295 39.6019 8.245H41.472L42.072 6.75477H45.392L46.012 8.245H49.262V3.23475L52.2419 8.25477ZM33.9819 8.25477H35.6119V1.57508H33.9819V8.25477ZM26.652 8.25477H28.252V5.82508H29.962C30.372 5.76508 30.7919 5.86487 31.1219 6.10487C31.3519 6.49487 31.4419 6.95467 31.3719 7.40467L31.382 8.245H32.9919V6.93495C33.0419 6.50495 32.952 6.07473 32.722 5.71473C32.512 5.46473 32.242 5.26467 31.932 5.15467C32.632 4.84467 33.082 4.14489 33.052 3.37489C33.092 2.76489 32.7819 2.18491 32.2419 1.89491C31.6419 1.61491 30.972 1.50508 30.312 1.57508H26.642L26.652 8.25477ZM20.212 8.25477H25.542V6.87489H21.812V5.53504H25.462V4.16493H21.812V2.96473H25.542V1.56483H20.212V8.25477ZM17.392 8.25477H19.032V1.57508H16.3719L14.452 6.10487L12.3619 1.57508H9.76196V7.89491L7.04199 1.57508H4.672L1.81201 8.25477H3.54199L4.16199 6.76502H7.48193L8.09204 8.25477H11.342V3.02479L13.662 8.25477H15.062L17.382 3.02479L17.392 8.25477ZM39.252 4.19471C39.152 4.42471 39.1119 4.67493 39.1219 4.91493C39.1019 5.18493 39.142 5.44471 39.252 5.69471C39.352 5.71471 39.462 5.72498 39.562 5.72498L40.252 4.10487H39.702C39.342 4.10487 39.302 4.14471 39.252 4.19471ZM42.6019 5.37489L43.702 2.71473L44.802 5.37489H42.6019ZM4.73193 5.37489L5.81201 2.71473L6.90198 5.37489H4.73193ZM28.2419 4.45497V2.97498H30.212C30.472 2.95498 30.732 2.9951 30.972 3.0951C31.192 3.2051 31.322 3.43495 31.302 3.68495C31.322 3.94495 31.192 4.18483 30.972 4.31483C30.722 4.43483 30.452 4.47497 30.182 4.45497H28.2419Z" fill="white"/>
</svg>
