<svg width="33" height="28" viewBox="0 0 33 28" fill="none" xmlns="http://www.w3.org/2000/svg">
<path d="M7.26404 25.691C7.23404 26.141 7.58405 26.5211 8.02405 26.5411C8.47405 26.5711 8.85402 26.2308 8.87402 25.7808C8.90402 25.3408 8.55401 24.9507 8.11401 24.9307H8.09399C7.66399 24.9107 7.29404 25.251 7.26404 25.691ZM9.42407 24.3609V27.0308H8.84399V26.7008C8.64399 26.9608 8.33403 27.1009 8.00403 27.0909C7.23403 27.0909 6.604 26.461 6.604 25.691C6.604 24.921 7.23403 24.2911 8.00403 24.2911C8.33403 24.2811 8.64399 24.4207 8.84399 24.6807V24.3609H9.42407ZM29.024 25.691C28.994 26.141 29.3341 26.5211 29.7841 26.5411C30.2341 26.5711 30.614 26.2308 30.634 25.7808C30.664 25.3308 30.324 24.9507 29.874 24.9307H29.854C29.414 24.9107 29.044 25.251 29.024 25.691ZM31.1841 23.2911V27.0308H30.604V26.7008C30.404 26.9608 30.094 27.1009 29.764 27.0909C28.994 27.0909 28.364 26.461 28.364 25.691C28.364 24.921 28.994 24.2911 29.764 24.2911C30.094 24.2811 30.404 24.4207 30.604 24.6807V23.2911H31.1841ZM16.624 24.8111C16.254 24.8011 15.9341 25.081 15.9141 25.461H17.2941C17.2941 25.091 16.984 24.8011 16.624 24.8111ZM16.634 24.2911C17.344 24.2911 17.9141 24.8711 17.9041 25.5811C17.9041 25.6211 17.904 25.661 17.894 25.691C17.894 25.771 17.884 25.8407 17.884 25.9107H15.9041C15.9541 26.3107 16.304 26.6011 16.704 26.5611C16.984 26.5611 17.264 26.4608 17.484 26.2808L17.764 26.711C17.454 26.961 17.0641 27.1011 16.6741 27.0811C15.9041 27.0911 15.264 26.4708 15.254 25.7008C15.244 24.9408 15.864 24.3011 16.634 24.2911ZM23.634 25.691C23.604 26.141 23.954 26.5211 24.394 26.5411C24.834 26.5711 25.224 26.2308 25.244 25.7808C25.274 25.3408 24.924 24.9507 24.484 24.9307H24.464C24.034 24.9107 23.654 25.251 23.634 25.691ZM25.7941 24.3609V27.0308H25.214V26.711C25.014 26.971 24.704 27.1112 24.374 27.1012C23.604 27.1012 22.974 26.4708 22.974 25.7008C22.974 24.9308 23.604 24.3009 24.374 24.3009C24.704 24.2909 25.014 24.431 25.214 24.691V24.3712H25.7941V24.3609ZM20.364 25.691C20.334 24.951 20.9141 24.3211 21.6541 24.2911H21.7841C22.1341 24.2711 22.474 24.3909 22.744 24.6109L22.464 25.0811C22.264 24.9311 22.014 24.8409 21.764 24.8409C21.294 24.8609 20.924 25.2608 20.954 25.7408C20.974 26.1808 21.324 26.5309 21.764 26.5509C22.014 26.5509 22.264 26.4611 22.464 26.3111L22.744 26.7808C22.474 27.0008 22.1341 27.1112 21.7841 27.1012C21.0441 27.1412 20.404 26.5811 20.364 25.8311V25.691ZM27.834 24.2911C27.974 24.2911 28.114 24.3209 28.244 24.3609L28.0641 24.9107C27.9441 24.8607 27.824 24.8409 27.704 24.8409C27.324 24.8409 27.134 25.0808 27.134 25.5308V27.0308H26.5541V24.3609H27.134V24.6807C27.274 24.4307 27.544 24.2811 27.834 24.2911ZM12.2941 24.5709L12.0441 25.0411C11.7941 24.8911 11.504 24.8211 11.214 24.8111C10.894 24.8111 10.704 24.9312 10.704 25.1212C10.704 25.3012 10.9041 25.3509 11.1541 25.3809L11.4241 25.421C12.0041 25.501 12.354 25.7508 12.354 26.2208C12.354 26.7308 11.904 27.0909 11.134 27.0909C10.724 27.1009 10.314 26.9808 9.98401 26.7408L10.254 26.2911C10.514 26.4811 10.824 26.5809 11.144 26.5709C11.544 26.5709 11.754 26.4511 11.754 26.2511C11.754 26.1011 11.6041 26.0208 11.2841 25.9708L11.014 25.9307C10.414 25.8507 10.094 25.5807 10.094 25.1407C10.094 24.6107 10.524 24.2911 11.204 24.2911C11.584 24.2811 11.9641 24.3809 12.2941 24.5709ZM19.774 24.2911C19.914 24.2911 20.0541 24.3209 20.1841 24.3609L20.004 24.9107C19.884 24.8607 19.764 24.8409 19.644 24.8409C19.264 24.8409 19.074 25.0808 19.074 25.5308V27.0211H18.494V24.3512H19.0641V24.671C19.2141 24.431 19.484 24.2811 19.774 24.2911ZM14.824 24.3609V24.8907H13.874V26.0909C13.874 26.3609 13.964 26.5411 14.254 26.5411C14.434 26.5311 14.614 26.4807 14.764 26.3907L14.9341 26.8907C14.7141 27.0307 14.464 27.1012 14.204 27.1012C13.514 27.1012 13.274 26.7309 13.274 26.1109V24.901H12.734V24.3712H13.274V23.5611H13.864V24.3712L14.824 24.3609ZM6.15405 27.0308H5.56409V25.5411C5.56409 25.0911 5.37401 24.8409 4.98401 24.8409C4.63401 24.8209 4.34397 25.091 4.32397 25.441V27.0308H3.73401V25.5411C3.73401 25.0911 3.53405 24.8409 3.15405 24.8409C2.81405 24.8209 2.51402 25.0807 2.49402 25.4307C2.49402 25.4707 2.49403 25.5109 2.50403 25.5509V27.0308H1.92407V24.3609H2.50403V24.691C2.67403 24.431 2.97406 24.2711 3.28406 24.2911C3.64406 24.2711 3.98406 24.4608 4.16406 24.7608C4.36406 24.4408 4.724 24.2611 5.104 24.2911C5.654 24.2611 6.12405 24.6808 6.15405 25.2208V27.0308ZM17.364 1.83114C17.284 1.77114 17.254 1.72075 17.264 1.68075C21.924 -1.39925 28.194 -0.118902 31.274 4.5411C34.354 9.2011 33.0741 15.4709 28.4141 18.5509C25.0341 20.7809 20.644 20.7809 17.264 18.5509C17.284 18.5109 17.314 18.4808 17.354 18.4508C17.744 18.1308 18.114 17.7707 18.444 17.3907C19.344 16.3807 20.044 15.2108 20.524 13.9508C20.844 13.1208 21.0541 12.2509 21.1541 11.3609C21.3741 9.40092 21.054 7.42118 20.244 5.62118C19.584 4.15118 18.594 2.86114 17.364 1.83114ZM12.744 10.0909C12.744 6.9909 14.164 4.05094 16.604 2.13094C16.664 2.13094 16.724 2.15077 16.764 2.20077C17.914 3.14077 18.854 4.32073 19.504 5.66073C19.924 6.51073 20.214 7.42092 20.374 8.36092C20.484 8.99092 20.534 9.62082 20.524 10.2608C20.474 13.2608 19.094 16.0911 16.774 18.0011C16.734 18.0411 16.694 18.0609 16.644 18.0709C14.184 16.1609 12.744 13.2109 12.744 10.0909ZM0.333984 9.36092C0.753984 3.78092 5.62398 -0.389156 11.204 0.030844C12.924 0.160844 14.584 0.730746 16.024 1.68075C16.034 1.72075 15.9941 1.76112 15.9241 1.81112C15.7441 1.96112 15.564 2.12084 15.394 2.28084C13.334 4.27084 12.1441 6.99092 12.0641 9.86092C12.0441 10.7109 12.1241 11.5509 12.3041 12.3809C12.4741 13.1709 12.7241 13.931 13.0541 14.671C13.7241 16.141 14.714 17.4408 15.944 18.4708C15.974 18.4908 15.994 18.5209 16.014 18.5509C11.344 21.6309 5.06401 20.341 1.98401 15.671C0.894009 14.021 0.314087 12.0909 0.314087 10.1109C0.314087 9.88092 0.323984 9.65098 0.333984 9.42098V9.36092Z" fill="white"/>
</svg>
