<svg width="61" height="17" viewBox="0 0 61 17" fill="none" xmlns="http://www.w3.org/2000/svg">
<path d="M47.186 3.10474C49.316 3.00474 51.646 3.87487 51.156 6.49487L49.796 12.7952H46.696L46.886 11.7249C45.236 13.4649 40.976 13.3749 41.656 9.49487C42.136 7.16487 44.4661 6.49487 47.9561 6.49487C48.1461 5.42487 47.476 5.23511 46.306 5.23511C45.286 5.33511 44.276 5.5648 43.306 5.91479L43.5961 3.68481C44.7661 3.35481 45.966 3.16474 47.186 3.10474ZM47.376 9.59497C47.376 9.30497 47.476 8.91489 47.566 9.01489H46.786C46.106 9.01489 45.2361 9.01497 44.8461 9.59497C44.4561 10.365 45.0361 10.7551 45.7161 10.7551C46.5061 10.6551 47.186 10.365 47.376 9.59497ZM53.766 0.195068H56.9661L54.3461 12.7952H51.246L53.766 0.195068ZM39.3361 0.195068C40.9861 0.195068 43.016 2.32501 42.536 5.13501C42.126 7.40501 40.096 9.02479 37.786 8.91479H35.366L34.496 12.7952H31.106L33.626 0.195068H39.3361ZM39.236 4.55493C39.436 3.98493 39.126 3.35503 38.556 3.15503C38.396 3.10503 38.236 3.08474 38.076 3.10474H36.436L35.756 6.01489H37.306C38.196 6.01489 38.996 5.42493 39.236 4.55493ZM16.9561 3.10474C19.0861 3.00474 21.506 3.87487 21.026 6.49487L19.666 12.7952H16.566L16.756 11.7249C15.106 13.4649 10.946 13.3749 11.626 9.49487C12.106 7.17487 14.436 6.49487 17.826 6.49487C18.0161 5.42487 17.346 5.23511 16.176 5.23511C15.146 5.32511 14.146 5.55479 13.176 5.91479L13.4661 3.68481C14.6061 3.34481 15.7761 3.15474 16.9561 3.10474ZM17.246 9.59497C17.246 9.30497 17.346 8.91489 17.436 9.01489H16.666C16.086 9.01489 15.2161 9.01497 14.826 9.59497C14.3461 10.365 14.926 10.7551 15.606 10.7551C16.366 10.6551 17.046 10.365 17.246 9.59497ZM22.286 3.10474H25.386L25.866 8.53491L28.9661 3.10474H32.166L24.796 16.6648H21.306L23.536 12.595L22.286 3.10474ZM9.29602 0.195068C10.946 0.195068 12.976 2.32501 12.396 5.13501C11.986 7.40501 9.956 9.02479 7.646 8.91479H5.22607L4.35596 12.7952H0.966064L3.48596 0.195068H9.29602ZM9.19604 4.55493C9.39604 3.98493 9.08599 3.35503 8.51599 3.15503C8.35599 3.10503 8.19601 3.08474 8.03601 3.10474H6.396L5.71606 6.01489H7.26599C8.16599 6.02489 8.96604 5.42493 9.19604 4.55493ZM57.646 2.22485V0.86499H57.166V0.675049H58.426V0.86499H57.946V2.22485H57.646ZM58.616 2.22485V0.675049H58.906L59.296 1.74487C59.306 1.81487 59.346 1.88481 59.396 1.93481C59.396 1.83481 59.396 1.83478 59.496 1.64478L59.886 0.574951H60.176V2.12476H59.9761V0.764893L59.496 2.12476H59.2061L58.7261 0.764893V2.12476H58.626L58.616 2.22485Z" fill="white"/>
</svg>
