<svg width="47" height="16" viewBox="0 0 47 16" fill="none" xmlns="http://www.w3.org/2000/svg">
<path d="M41.769 10.145H40.929C40.899 10.145 40.859 10.1448 40.829 10.1548C40.819 10.1548 40.809 10.1648 40.809 10.1748C40.779 10.1548 40.739 10.145 40.699 10.145H39.719C39.679 10.135 39.649 10.145 39.619 10.165L39.609 10.1548C39.579 10.1448 39.5391 10.135 39.5091 10.145H39.1389C39.0589 10.145 39.049 10.1352 39.079 10.0552C39.159 9.84518 39.229 9.64506 39.299 9.43506C39.309 9.40506 39.319 9.37521 39.319 9.34521V9.33496C39.349 9.31496 39.3591 9.28488 39.369 9.25488C39.489 8.91488 39.6191 8.56484 39.7491 8.21484C39.7591 8.18484 39.7691 8.16477 39.7491 8.13477C39.7791 8.13477 39.789 8.1052 39.799 8.0752C40.009 7.4952 40.229 6.90494 40.429 6.31494C40.439 6.29494 40.449 6.26486 40.439 6.23486C40.479 6.22486 40.479 6.19504 40.489 6.16504C40.659 5.70504 40.819 5.25492 40.989 4.79492C40.999 4.77492 40.9991 4.76512 40.9991 4.74512C41.0091 4.76512 41.0091 4.78492 41.0091 4.79492C41.0291 4.90492 41.049 5.02477 41.089 5.13477V5.14502C41.079 5.16502 41.079 5.19484 41.089 5.21484C41.099 5.27484 41.1091 5.34479 41.1291 5.40479L41.969 9.4248C42.019 9.6648 42.0591 9.90502 42.1291 10.145H42.1389C42.0689 10.105 41.979 10.105 41.899 10.145C41.889 10.135 41.879 10.135 41.869 10.125C41.8391 10.115 41.7991 10.1147 41.7591 10.1147M46.719 15.2651C46.579 14.6251 46.449 13.985 46.319 13.335C46.219 12.875 46.119 12.4151 46.029 11.9551V11.9448L44.789 5.98486C44.429 4.25486 44.069 2.53518 43.709 0.805176C43.699 0.745176 43.6791 0.725098 43.619 0.725098H40.469C40.419 0.715098 40.369 0.724863 40.319 0.734863C40.049 0.744863 39.789 0.835098 39.569 0.975098C39.539 0.985098 39.519 1.00514 39.489 1.01514C39.159 1.24514 38.919 1.57482 38.799 1.94482L38.059 3.68506L37.969 3.89502L37.589 4.8252C37.539 4.9352 37.499 5.03502 37.449 5.14502L36.989 6.25488C36.959 6.29488 36.939 6.33477 36.929 6.38477L36.3889 7.68506C36.3589 7.74506 36.339 7.79498 36.319 7.85498L35.929 8.79492C35.849 8.98492 35.759 9.185 35.679 9.375L35.179 10.5752C35.139 10.6552 35.109 10.7349 35.069 10.8149L34.589 11.9751C34.379 12.4551 34.179 12.9248 33.989 13.4048L33.969 13.4248L33.219 15.2251C33.199 15.2551 33.189 15.2849 33.189 15.3149H37.039C37.119 15.3349 37.159 15.2948 37.189 15.2148C37.279 14.9548 37.379 14.6951 37.469 14.4351C37.569 14.1551 37.669 13.875 37.769 13.585C37.819 13.455 37.869 13.3351 37.909 13.2051C37.919 13.1551 37.969 13.1248 38.019 13.1348H38.449C38.819 13.1448 39.199 13.1448 39.569 13.1348C39.959 13.1448 40.339 13.1448 40.729 13.1348C41.129 13.1448 41.519 13.1448 41.919 13.1348C42.179 13.1348 42.429 13.1448 42.689 13.1348C42.759 13.1348 42.779 13.1548 42.789 13.2148C42.929 13.8948 43.069 14.5751 43.209 15.2651C43.219 15.3051 43.229 15.3149 43.269 15.3149H46.659C46.719 15.3149 46.719 15.2951 46.709 15.2451M16.439 3.81494C16.519 3.63494 16.589 3.4549 16.669 3.2749C16.789 2.9749 16.909 2.68477 17.039 2.38477C17.099 2.26477 17.149 2.13488 17.199 2.00488C17.249 1.91488 17.279 1.8251 17.309 1.7251L17.729 0.734863H13.829C13.809 0.734863 13.7791 0.725117 13.7591 0.745117L13.6291 1.08496C13.5491 1.29496 13.4591 1.50484 13.3791 1.71484C13.2591 2.01484 13.149 2.31475 13.029 2.61475C12.909 2.92475 12.779 3.23492 12.659 3.54492L12.329 4.38477C12.119 4.89477 11.909 5.41506 11.719 5.93506C11.669 6.04506 11.629 6.15514 11.579 6.26514L11.159 7.33496L10.569 8.81494C10.539 8.87494 10.5191 8.93512 10.4991 8.99512L9.98904 10.2949L9.84903 10.6348C9.83903 10.6148 9.83901 10.5952 9.82901 10.5752C9.76901 10.2452 9.70896 9.92521 9.64896 9.59521C9.59896 9.32521 9.53904 9.0449 9.48904 8.7749V8.71484L9.26895 7.55518C9.07895 6.55518 8.89901 5.56494 8.70901 4.56494C8.55902 3.76494 8.40905 2.95479 8.24905 2.15479C8.09905 1.31479 7.36906 0.695078 6.50906 0.705078H0.168976C0.148976 0.705078 0.11903 0.684844 0.0990295 0.714844C0.0690295 0.834844 0.0489514 0.955195 0.0189514 1.0752C0.0189514 1.1052 0.0189807 1.12477 0.0489807 1.13477L0.658966 1.2749C0.668966 1.2749 0.668986 1.28516 0.678986 1.28516C1.16899 1.40516 1.65895 1.54508 2.13895 1.70508L2.58902 1.85498C3.04902 2.02498 3.49899 2.2351 3.92899 2.4751C4.06899 2.5751 4.19898 2.68494 4.29898 2.81494C4.44898 3.04494 4.54904 3.29494 4.60904 3.56494C4.83904 4.43494 5.05897 5.3048 5.28897 6.1748L6.83902 12.1851C7.09902 13.1951 7.35906 14.2151 7.62906 15.2251C7.62906 15.2651 7.66901 15.2949 7.70901 15.2949H11.599C11.629 15.2949 11.649 15.2951 11.659 15.2651L11.809 14.9048C11.879 14.7448 11.9491 14.5951 12.0091 14.4351C12.1391 14.1151 12.279 13.7948 12.409 13.4648C12.419 13.4548 12.429 13.4348 12.429 13.4248L12.9991 12.0649C13.0091 12.0349 13.029 12.0151 13.039 11.9951L13.589 10.665L13.859 10.0352C13.979 9.75516 14.099 9.46506 14.209 9.18506C14.289 9.00506 14.369 8.81477 14.449 8.63477C14.579 8.32477 14.709 8.01508 14.829 7.70508C14.859 7.66508 14.8691 7.62496 14.8791 7.58496L14.939 7.43506L14.969 7.375L15.559 5.96484C15.689 5.65484 15.829 5.3449 15.959 5.0249C16.099 4.6549 16.269 4.24494 16.439 3.81494ZM23.1291 0.734863H19.409C19.389 0.734863 19.349 0.715137 19.349 0.765137L19.299 0.995117C19.299 1.01512 19.289 1.02492 19.289 1.04492C19.179 1.56492 19.069 2.07521 18.959 2.59521C18.909 2.85521 18.849 3.11477 18.799 3.38477C18.799 3.38477 18.789 3.39479 18.789 3.40479C18.679 3.89479 18.579 4.39477 18.469 4.88477C18.429 5.02477 18.4091 5.16518 18.3791 5.30518C18.3291 5.46518 18.299 5.63518 18.269 5.80518L17.959 7.25488L17.869 7.6748L17.6389 8.78516C17.6289 8.79516 17.629 8.8152 17.619 8.8252L17.349 10.1147L17.1291 11.145C17.0891 11.335 17.0491 11.5151 17.0091 11.7051L16.709 13.1147C16.679 13.2247 16.6591 13.3451 16.6291 13.4551L16.239 15.2852C16.229 15.3152 16.219 15.3452 16.279 15.3452H19.949C19.979 15.3452 19.9991 15.3352 19.9991 15.3052C20.0091 15.2452 20.029 15.1847 20.049 15.1147L20.2591 14.1548L20.3791 13.585C20.3891 13.575 20.3889 13.5649 20.3889 13.5449L20.699 12.0752L20.799 11.6348L20.8889 11.2148C20.9089 11.1548 20.919 11.0949 20.939 11.0249L21.219 9.69482C21.219 9.68482 21.229 9.67504 21.229 9.66504C21.339 9.13504 21.459 8.6052 21.569 8.0752C21.619 7.8252 21.669 7.58496 21.719 7.33496C21.729 7.32496 21.729 7.31518 21.729 7.30518L22.149 5.3252C22.219 5.0052 22.289 4.67521 22.349 4.34521C22.349 4.33521 22.359 4.32494 22.359 4.31494C22.559 3.38494 22.759 2.44514 22.959 1.51514C23.019 1.26514 23.0691 1.00486 23.1291 0.734863ZM34.0091 1.09521C33.9391 1.07521 33.859 1.04514 33.789 1.01514C33.399 0.875137 32.989 0.775059 32.589 0.685059C32.559 0.675059 32.5391 0.665039 32.5091 0.665039C31.9191 0.545039 31.329 0.474844 30.729 0.464844L30.339 0.475098V0.464844C30.119 0.474844 29.909 0.484883 29.689 0.504883C29.519 0.514883 29.349 0.534941 29.179 0.564941C28.829 0.604941 28.4789 0.674902 28.1389 0.774902C27.7689 0.864902 27.409 0.995039 27.059 1.16504C26.739 1.30504 26.429 1.47506 26.149 1.68506C25.829 1.89506 25.539 2.15506 25.289 2.43506C25.209 2.50506 25.149 2.5848 25.079 2.6748C24.869 2.9448 24.689 3.23492 24.549 3.54492L24.519 3.60498C24.339 4.01498 24.229 4.45479 24.189 4.90479C24.129 5.44479 24.1989 5.99488 24.3889 6.50488C24.6189 7.05488 24.969 7.54482 25.419 7.94482C25.749 8.24482 26.1091 8.51486 26.4991 8.73486C26.5091 8.74486 26.529 8.75514 26.549 8.76514C26.849 8.94514 27.169 9.1149 27.489 9.2749C27.629 9.3449 27.779 9.41486 27.919 9.48486C28.069 9.57486 28.2191 9.65512 28.3791 9.74512C28.6191 9.88512 28.849 10.0551 29.059 10.2451C29.269 10.4251 29.399 10.6751 29.439 10.9551V11.1948C29.409 11.4448 29.2991 11.6747 29.1291 11.8647C28.9491 12.0347 28.749 12.1649 28.529 12.2549C28.389 12.3149 28.249 12.3548 28.109 12.4048C27.739 12.4848 27.359 12.5251 26.979 12.5151L26.519 12.5049C26.099 12.4749 25.679 12.4152 25.269 12.3252C25.079 12.2752 24.899 12.2248 24.709 12.1748L24.1389 11.9648C23.8789 11.8648 23.6291 11.745 23.3791 11.625C23.3591 11.615 23.319 11.5748 23.309 11.6348L23.1291 12.5049C23.1191 12.5149 23.119 12.5249 23.119 12.5449C22.959 13.2749 22.809 14.0049 22.649 14.7349C22.639 14.7649 22.649 14.8049 22.679 14.8149H22.689C23.029 14.9649 23.379 15.075 23.739 15.165C23.889 15.205 24.029 15.2451 24.179 15.2651C24.289 15.2951 24.409 15.325 24.519 15.335C24.799 15.395 25.0891 15.4351 25.3791 15.4551C25.4091 15.4651 25.439 15.4548 25.469 15.4648H25.539C25.559 15.4748 25.579 15.4751 25.609 15.4751H25.699C25.729 15.4951 25.769 15.4749 25.799 15.4849H25.919C25.939 15.4949 25.959 15.4951 25.979 15.4951L26.739 15.5352V15.5649H27.069V15.5552H27.099C27.159 15.5652 27.229 15.5652 27.289 15.5552H27.5091C27.5591 15.5652 27.599 15.5549 27.649 15.5449H27.709C28.039 15.5249 28.369 15.4848 28.699 15.4248C28.879 15.3948 29.059 15.3552 29.239 15.3052C29.609 15.2252 29.969 15.1151 30.309 14.9551C30.559 14.8551 30.799 14.7352 31.029 14.5952C31.059 14.5952 31.079 14.5749 31.099 14.5649C31.399 14.3849 31.679 14.1748 31.939 13.9448C31.949 13.9448 31.949 13.9351 31.959 13.9351C32.269 13.6551 32.5391 13.3351 32.7591 12.9751C32.7691 12.9551 32.779 12.9448 32.789 12.9248C33.259 12.1348 33.469 11.2249 33.409 10.3149C33.369 9.49494 33.029 8.72502 32.459 8.14502C31.859 7.55502 31.169 7.06508 30.409 6.70508C29.919 6.43508 29.409 6.18477 28.929 5.88477C28.909 5.86477 28.889 5.85496 28.869 5.83496C28.659 5.70496 28.479 5.53521 28.319 5.34521C28.169 5.15521 28.109 4.90504 28.149 4.66504C28.179 4.52504 28.239 4.3949 28.309 4.2749C28.549 3.9849 28.859 3.78506 29.219 3.68506C29.469 3.61506 29.719 3.57518 29.969 3.55518H30.059C30.079 3.55518 30.0991 3.55492 30.1291 3.54492H30.369L30.929 3.56494C30.959 3.57494 30.989 3.5652 31.019 3.5752H31.099C31.129 3.5852 31.159 3.57496 31.189 3.58496C31.289 3.60496 31.379 3.615 31.479 3.625C31.489 3.625 31.4991 3.63477 31.5091 3.63477C31.8191 3.68477 32.129 3.75521 32.439 3.84521C32.769 3.94521 33.089 4.06508 33.399 4.20508C33.419 4.21508 33.459 4.25482 33.469 4.19482L33.6389 3.36475C33.6489 3.35475 33.649 3.3452 33.649 3.3252C33.709 3.0552 33.759 2.7949 33.819 2.5249C33.909 2.0849 34.009 1.64508 34.109 1.20508C34.119 1.15508 34.109 1.12475 34.059 1.11475" fill="white"/>
</svg>
